<svg xmlns="http://www.w3.org/2000/svg" width="1280" height="760" viewBox="0 0 1280 760" role="img" aria-labelledby="title desc">
  <title id="title">Regulatory evidence loop</title>
  <desc id="desc">A workflow from discovery through classification, explanation, remediation, and audit evidence.</desc>
  <rect width="1280" height="760" fill="#ffffff"/>
  <rect x="48" y="44" width="1184" height="672" rx="20" fill="#f8fafc" stroke="#d6dee9"/>

  <g font-family="Inter, Arial, sans-serif">
    <text x="88" y="104" font-size="36" font-weight="800" fill="#162033">From Data Inventory to Audit-Ready Evidence</text>
    <text x="88" y="138" font-size="18" fill="#667085">PHI Guard Intelligence turns scattered metadata into a repeatable risk analysis workflow.</text>
  </g>

  <defs>
    <marker id="arrow" markerWidth="12" markerHeight="12" refX="10" refY="6" orient="auto">
      <path d="M2 2l8 4-8 4z" fill="#475467"/>
    </marker>
  </defs>

  <g stroke="#64748b" stroke-width="3" marker-end="url(#arrow)" fill="none">
    <path d="M346 308c94-94 229-134 358-106"/>
    <path d="M936 310c78 86 82 216 8 306"/>
    <path d="M848 618c-116 58-258 48-364-32"/>
    <path d="M338 614c-74-90-70-218 8-306"/>
  </g>

  <g font-family="Inter, Arial, sans-serif">
    <circle cx="640" cy="452" r="132" fill="#172033"/>
    <text x="574" y="422" font-size="30" font-weight="800" fill="#ffffff">Evidence</text>
    <text x="552" y="458" font-size="17" fill="#c7d2e3">Risk analysis, review,</text>
    <text x="546" y="486" font-size="17" fill="#c7d2e3">remediation, and audit</text>
  </g>

  <g font-family="Inter, Arial, sans-serif" font-size="16">
    <rect x="120" y="226" width="250" height="126" rx="16" fill="#eef7ff" stroke="#84caff"/>
    <text x="150" y="268" font-size="21" font-weight="800" fill="#175cd3">1. Discover</text>
    <text x="150" y="302" fill="#344054">Inventory tables, columns,</text>
    <text x="150" y="328" fill="#344054">lineage, roles, and files.</text>

    <rect x="910" y="226" width="250" height="126" rx="16" fill="#ecfdf3" stroke="#abefc6"/>
    <text x="940" y="268" font-size="21" font-weight="800" fill="#067647">2. Classify</text>
    <text x="940" y="302" fill="#344054">Detect identifiers, health</text>
    <text x="940" y="328" fill="#344054">context, free text, and AI risk.</text>

    <rect x="910" y="576" width="250" height="126" rx="16" fill="#fff8e6" stroke="#ffdf89"/>
    <text x="940" y="618" font-size="21" font-weight="800" fill="#b54708">3. Explain</text>
    <text x="940" y="652" fill="#344054">Score impact, likelihood,</text>
    <text x="940" y="678" fill="#344054">exposure, gaps, confidence.</text>

    <rect x="120" y="576" width="250" height="126" rx="16" fill="#fef3f2" stroke="#fda29b"/>
    <text x="150" y="618" font-size="21" font-weight="800" fill="#b42318">4. Remediate</text>
    <text x="150" y="652" fill="#344054">Assign owners, due windows,</text>
    <text x="150" y="678" fill="#344054">controls, and review steps.</text>
  </g>
</svg>
